<svg  viewBox="0 0 20 34" fill="none" xmlns="http://www.w3.org/2000/svg">
    <path d="M19.4549 15.6682L4.30785 0.543488C3.95855 0.194859 3.48497 -0.000976562 2.99118 -0.000976562C2.49739 -0.000976562 2.0238 0.194859 1.6745 0.543488L0.558817 1.65789C0.209785 2.00678 0.0137254 2.47982 0.0137254 2.97304C0.0137254 3.46626 0.209785 3.9393 0.558817 4.28819L13.2784 16.9931L0.545091 29.7108C0.19606 30.0597 0 30.5328 0 31.026C0 31.5192 0.19606 31.9922 0.545091 32.3411L1.66078 33.4546C2.01007 33.8032 2.48366 33.999 2.97745 33.999C3.47124 33.999 3.94483 33.8032 4.29412 33.4546L19.4549 18.3122C19.8041 17.9606 20 17.4854 20 16.9902C20 16.495 19.8041 16.0198 19.4549 15.6682Z" fill="currentColor"/>
</svg>
