<svg  viewBox="0 0 21 35" fill="none" xmlns="http://www.w3.org/2000/svg">
    <path d="M0.555969 16L16.006 0.555018C16.3623 0.199006 16.8453 -0.000976563 17.349 -0.000976562C17.8526 -0.000976562 18.3357 0.199006 18.692 0.555018L19.83 1.69302C20.186 2.0493 20.386 2.53235 20.386 3.03602C20.386 3.53968 20.186 4.02274 19.83 4.37902L6.85597 17.352L19.844 30.34C20.2 30.6963 20.4 31.1794 20.4 31.683C20.4 32.1867 20.2 32.6697 19.844 33.026L18.706 34.163C18.3497 34.519 17.8666 34.719 17.363 34.719C16.8593 34.719 16.3763 34.519 16.02 34.163L0.555969 18.7C0.199829 18.341 0 17.8557 0 17.35C0 16.8443 0.199829 16.3591 0.555969 16Z" fill="currentColor"/>
</svg>
